<svg id="DISEÑO" xmlns="http://www.w3.org/2000/svg" viewBox="0 0 130 130"><title>assets</title><path d="M46,122.48H26.18a9.49,9.49,0,0,1-7.57-3.77,8.75,8.75,0,0,1-6.05,3.4h0a8.89,8.89,0,0,1-9.76-8.85V92.9A15.85,15.85,0,0,1,18.63,77.07H53.57A15.85,15.85,0,0,1,69.4,92.9v20.35a8.89,8.89,0,0,1-9.76,8.85,8.74,8.74,0,0,1-6-3.4A9.48,9.48,0,0,1,46,122.48Zm-33.65-2.31h0ZM18.63,111A2,2,0,0,1,20.58,113a5.61,5.61,0,0,0,5.6,5.62H46a5.61,5.61,0,0,0,5.6-5.6A2,2,0,0,1,53.56,111h0A2,2,0,0,1,55.51,113a5.2,5.2,0,0,0,4.5,5.25,5,5,0,0,0,5.49-5V92.9A12,12,0,0,0,53.57,81H18.63A12,12,0,0,0,6.69,92.9v20.35A5,5,0,0,0,8.33,117a5,5,0,0,0,3.86,1.27h0a5.2,5.2,0,0,0,4.5-5.27A2,2,0,0,1,18.63,111Z" style="fill:#0224b0"/><path d="M53.56,81H18.63a1.95,1.95,0,0,1,0-3.89H53.56a1.95,1.95,0,0,1,0,3.89Z" style="fill:#0224b0"/><path d="M18.63,114.9A2,2,0,0,1,16.69,113v-8.87a1.95,1.95,0,1,1,3.89,0V113A2,2,0,0,1,18.63,114.9Z" style="fill:#0224b0"/><path d="M53.56,114.9A2,2,0,0,1,51.61,113v-8.87a1.95,1.95,0,1,1,3.89,0V113A2,2,0,0,1,53.56,114.9Z" style="fill:#0224b0"/><path d="M36.1,71.51A13.68,13.68,0,1,1,49.77,57.83,13.69,13.69,0,0,1,36.1,71.51Zm0-23.46a9.78,9.78,0,1,0,9.78,9.78A9.79,9.79,0,0,0,36.1,48.05Z" style="fill:#0224b0"/><path d="M67,69a4.26,4.26,0,0,1-1.68-.35,4.16,4.16,0,0,1-2.56-3.87V54.43H59.18A4.22,4.22,0,0,1,55,50.22V11.74a4.22,4.22,0,0,1,4.21-4.21H123a4.22,4.22,0,0,1,4.21,4.21V50.22A4.22,4.22,0,0,1,123,54.43H83.91l-14,13.41A4.17,4.17,0,0,1,67,69ZM59.18,11.42a.32.32,0,0,0-.32.32V50.22a.32.32,0,0,0,.32.32h5.53a2,2,0,0,1,1.95,1.95V64.79a.32.32,0,0,0,.54.23L81.79,51.07a1.94,1.94,0,0,1,1.35-.54H123a.32.32,0,0,0,.32-.32V11.74a.32.32,0,0,0-.32-.32Z" style="fill:#0224b0"/><path d="M93,24.49H70.25a1.95,1.95,0,1,1,0-3.89H93a1.95,1.95,0,0,1,0,3.89Z" style="fill:#0224b0"/><path d="M112.14,38.83H70.25a1.95,1.95,0,1,1,0-3.89h41.89a1.95,1.95,0,0,1,0,3.89Z" style="fill:#0224b0"/></svg>