<svg id="DISEÑO" xmlns="http://www.w3.org/2000/svg" viewBox="0 0 200 200"><title>assets</title><path d="M155.37,135.45a2.5,2.5,0,0,1-2.5-2.5V77.58a52.86,52.86,0,1,0-105.73,0v55.37a2.5,2.5,0,0,1-5,0V77.58a57.87,57.87,0,1,1,115.74,0v55.37A2.5,2.5,0,0,1,155.37,135.45Z" style="fill:#07a6ff"/><path d="M44.63,135.45H31.57a12.11,12.11,0,0,1-12.1-12.1V99.79a12.11,12.11,0,0,1,12.1-12.1H44.63a2.5,2.5,0,0,1,2.5,2.5v42.76A2.5,2.5,0,0,1,44.63,135.45ZM31.57,92.7a7.1,7.1,0,0,0-7.09,7.09v23.57a7.1,7.1,0,0,0,7.09,7.09H42.13V92.7Z" style="fill:#07a6ff"/><path d="M168.43,135.45H155.37a2.5,2.5,0,0,1-2.5-2.5V90.19a2.5,2.5,0,0,1,2.5-2.5h13.06a12.11,12.11,0,0,1,12.1,12.1v23.57A12.11,12.11,0,0,1,168.43,135.45Zm-10.56-5h10.56a7.1,7.1,0,0,0,7.09-7.09V99.79a7.1,7.1,0,0,0-7.09-7.09H157.87Z" style="fill:#07a6ff"/><path d="M91.84,180.29a10.84,10.84,0,1,1,10.84-10.84A10.86,10.86,0,0,1,91.84,180.29Zm0-16.68a5.84,5.84,0,1,0,5.84,5.84A5.84,5.84,0,0,0,91.84,163.61Z" style="fill:#07a6ff"/><path d="M83.5,171.95H81.13a39,39,0,0,1-39-39,2.5,2.5,0,0,1,5,0,34,34,0,0,0,34,34H83.5a2.5,2.5,0,1,1,0,5Z" style="fill:#07a6ff"/></svg>