<svg id="DISEÑO" xmlns="http://www.w3.org/2000/svg" viewBox="0 0 130 130"><title>assets</title><path d="M36.34,47.53H93.66a5.66,5.66,0,0,1,5.66,5.87l-2.62,51.79A5.64,5.64,0,0,1,91,110.64H39a5.64,5.64,0,0,1-5.66-5.45L30.68,53.4a5.66,5.66,0,0,1,5.66-5.87ZM91,107.25a2.26,2.26,0,0,0,2.27-2.18l2.62-51.79a2.27,2.27,0,0,0-2.27-2.35H36.34a2.27,2.27,0,0,0-2.27,2.35l2.62,51.79A2.26,2.26,0,0,0,39,107.25Z" style="fill:#0224b0"/><path d="M81.54,50.18a1.7,1.7,0,0,1-1.7-1.7V38.1a15.34,15.34,0,0,0-30.69,0V48.48a1.7,1.7,0,0,1-3.39,0V38.1a18.74,18.74,0,1,1,37.47,0V48.48A1.7,1.7,0,0,1,81.54,50.18Z" style="fill:#0224b0"/></svg>