<svg id="DISEÑO" xmlns="http://www.w3.org/2000/svg" viewBox="0 0 130 130"><title>assets</title><path d="M61.88,65.66A1.38,1.38,0,0,1,60.69,65c-3.51-5.9-8.13-9.44-13.72-10.54-12.06-2.36-25,7.27-25.11,7.37a1.39,1.39,0,0,1-1.67-2.21c.57-.43,14-10.48,27.3-7.89C53.9,53,59.14,57,63.07,63.57a1.39,1.39,0,0,1-1.19,2.09Z" style="fill:#0224b0"/><path d="M87,69l-.27,0a1.39,1.39,0,0,1-1.09-1.63c0-.24,4.64-23.72-.15-41.28a1.39,1.39,0,1,1,2.67-.73c5,18.2.39,41.57.19,42.55A1.39,1.39,0,0,1,87,69Z" style="fill:#0224b0"/><path d="M55.27,69.65a1.39,1.39,0,0,1-.91-2.43c.15-.13,15.4-13.17,33.48-.7a1.39,1.39,0,0,1-1.57,2.28c-16.27-11.22-29.53,0-30.08.51A1.38,1.38,0,0,1,55.27,69.65Z" style="fill:#0224b0"/><path d="M21,97.86a1.39,1.39,0,0,1-1.13-2.19l6.64-9.29A1.39,1.39,0,1,1,28.79,88l-6.64,9.29A1.38,1.38,0,0,1,21,97.86Z" style="fill:#0224b0"/><path d="M57.12,102c-22.45,0-32.25-9.83-32.86-10.47a1.39,1.39,0,0,1,2-1.92c.28.28,22.57,22.24,77.63-1.71a6.13,6.13,0,0,0,3.69-5.55c.09-9.5-.93-34.35-12.29-59.76A6.12,6.12,0,0,0,92,19.36c-8.77-3.57-15.2-4.43-16.38-2.21-3.53,6.67-3.16,8.59-3,9,0,.08.09.19.37.25l1.48.35c4.5,1.09,7.16,1.42,7.91,1,.26-1.07.85-2.88,2-3.54A2,2,0,0,1,86,24l1.22.39a1.39,1.39,0,1,1-.84,2.64l-.73-.23a8.06,8.06,0,0,0-.64,1.9,1.38,1.38,0,0,1-.2.49c-1.55,2.33-5.89,1.49-11,.26l-1.42-.34a3.17,3.17,0,0,1-2.29-1.8c-.61-1.32-1-4,3-11.48,2.57-4.86,12.23-2.17,19.88.93a8.88,8.88,0,0,1,4.77,4.63c11.59,25.91,12.63,51.23,12.53,60.92A8.91,8.91,0,0,1,105,90.41C85,99.1,69.23,102,57.12,102Z" style="fill:#0224b0"/></svg>