<svg id="DISEÑO" xmlns="http://www.w3.org/2000/svg" viewBox="0 0 355 355"><title>assets</title><rect x="14.7" y="14.7" width="339.71" height="339.71" rx="72.44" ry="72.44" style="fill:#07a6ff"/><rect x="0.59" y="0.59" width="339.71" height="339.71" rx="72.44" ry="72.44" style="fill:#006"/><path d="M171.37,51.24A115.81,115.81,0,0,0,88.12,247.62L68,295.18l45.17-27.92a115.86,115.86,0,1,0,58.21-216Zm0,215.42a99.55,99.55,0,1,1,99.55-99.55A99.67,99.67,0,0,1,171.37,266.66Z" style="fill:#07a6ff;stroke:#00b9e3;stroke-miterlimit:10;stroke-width:0.197941998560007px"/><path d="M171.37,98.88,111.7,133.33v68.9l59.67,34.45L231,202.23v-68.9ZM225,198.75l-53.64,31-53.64-31V136.81l53.64-31,53.64,31Z" style="fill:#fff"/><path d="M127.33,142.35v50.86l44,25.43,44-25.43V142.35l-44-25.43Zm64.18,52.17H147.68v-2.37c7.21-.51,7.94-1.07,7.94-8.28V151.54c0-7.15-.56-7.66-7.55-8.11v-2.48h22.81v2.48c-6.65.45-7.44.9-7.44,8.11v32.05c0,4.51.39,6.08,2,6.93s4.51,1.07,7.83,1.07c.48,0,5.9,0,6.35,0,3.69-.11,6.25-.72,8-2.63,1.58-1.58,3.16-4.28,4.56-8.22l2.53.51C194.1,184,192.35,192,191.5,194.52Zm.69-32.23-1.53.24a9.73,9.73,0,0,0-1.53-4c-.88-1.39-2-1.83-5.73-1.83h-5.35c-1.59,0-1.73.14-1.73,1.63v11.59h4.26c4.64,0,4.92-.47,5.56-3.69h1.49V176h-1.53c-.61-3.46-.88-4-5.53-4h-4.26v8.64c0,4.41.44,4.71,5.09,5.05v1.42H167.15v-1.42c4-.31,4.47-.64,4.47-5.05V161.24c0-4.37-.44-4.64-4.34-4.92v-1.49h24.37C191.72,156.67,192,159.82,192.19,162.29Z" style="fill:#fff"/></svg>