<svg id="DISEÑO" xmlns="http://www.w3.org/2000/svg" viewBox="0 0 130 130"><title>assets</title><path d="M65,107.18a1.64,1.64,0,0,1-1.64-1.64V79.27a1.64,1.64,0,1,1,3.27,0v26.27A1.64,1.64,0,0,1,65,107.18Z" style="fill:#0224b0"/><path d="M70.43,112.61A7.05,7.05,0,0,1,65,110.06a7.06,7.06,0,0,1-12.5-4.52V76.21a5.67,5.67,0,0,1-2.1.63,6,6,0,0,1-6.53-5.93V48.13A10.28,10.28,0,0,1,54.14,37.86H75.86A10.28,10.28,0,0,1,86.13,48.13V70.92a6,6,0,0,1-6.53,5.93,5.65,5.65,0,0,1-2.1-.63v29.33A7.07,7.07,0,0,1,70.43,112.61ZM65,103.9a1.64,1.64,0,0,1,1.64,1.64,3.8,3.8,0,0,0,7.59,0V70.75a1.64,1.64,0,0,1,1.63-1.64h0a1.64,1.64,0,0,1,1.64,1.63,2.81,2.81,0,0,0,2.41,2.84,2.68,2.68,0,0,0,3-2.67V48.13a7,7,0,0,0-7-7H54.14a7,7,0,0,0-7,7V70.92a2.68,2.68,0,0,0,3,2.67,2.81,2.81,0,0,0,2.41-2.85,1.64,1.64,0,0,1,3.27,0v34.81a3.8,3.8,0,0,0,7.59,0A1.64,1.64,0,0,1,65,103.9Z" style="fill:#0224b0"/><path d="M75.86,41.13H54.14a1.64,1.64,0,0,1,0-3.27H75.86a1.64,1.64,0,0,1,0,3.27Z" style="fill:#0224b0"/><path d="M54.14,72.37a1.64,1.64,0,0,1-1.64-1.64V55.09a1.64,1.64,0,1,1,3.27,0V70.73A1.64,1.64,0,0,1,54.14,72.37Z" style="fill:#0224b0"/><path d="M75.86,72.37a1.64,1.64,0,0,1-1.64-1.64V55.09a1.64,1.64,0,1,1,3.27,0V70.73A1.64,1.64,0,0,1,75.86,72.37Z" style="fill:#0224b0"/><path d="M65,35.25a8.93,8.93,0,1,1,8.93-8.93A8.94,8.94,0,0,1,65,35.25Zm0-14.59a5.66,5.66,0,1,0,5.66,5.66A5.66,5.66,0,0,0,65,20.66Z" style="fill:#0224b0"/><path d="M18.37,68.61a1.63,1.63,0,0,1-1.16-.48L9.69,60.62a1.64,1.64,0,0,1,0-2.31l7.52-7.52a1.64,1.64,0,0,1,2.31,2.31l-6.36,6.36,6.36,6.36a1.64,1.64,0,0,1-1.16,2.79Z" style="fill:#0224b0"/><path d="M31.9,61.1h-21a1.64,1.64,0,0,1,0-3.27h21a1.64,1.64,0,0,1,0,3.27Z" style="fill:#0224b0"/><path d="M111.63,68.61a1.64,1.64,0,0,1-1.16-2.79l6.36-6.36-6.36-6.36a1.64,1.64,0,0,1,2.31-2.31l7.52,7.52a1.64,1.64,0,0,1,0,2.31l-7.52,7.52A1.63,1.63,0,0,1,111.63,68.61Z" style="fill:#0224b0"/><path d="M119.15,61.1h-21a1.64,1.64,0,0,1,0-3.27h21a1.64,1.64,0,1,1,0,3.27Z" style="fill:#0224b0"/><path d="M26.71,33.44a1.64,1.64,0,0,1-1.64-1.64V21.17a1.64,1.64,0,0,1,1.64-1.64H37.34a1.64,1.64,0,1,1,0,3.27h-9v9A1.64,1.64,0,0,1,26.71,33.44Z" style="fill:#0224b0"/><path d="M41.59,37.69a1.63,1.63,0,0,1-1.16-.48L25.55,22.33A1.64,1.64,0,1,1,27.87,20L42.75,34.9a1.64,1.64,0,0,1-1.16,2.79Z" style="fill:#0224b0"/><path d="M103.29,99.39H92.66a1.64,1.64,0,0,1,0-3.27h9v-9a1.64,1.64,0,0,1,3.27,0V97.75A1.64,1.64,0,0,1,103.29,99.39Z" style="fill:#0224b0"/><path d="M103.29,99.39a1.63,1.63,0,0,1-1.16-.48L87.25,84a1.64,1.64,0,1,1,2.31-2.31L104.45,96.6a1.64,1.64,0,0,1-1.16,2.79Z" style="fill:#0224b0"/><path d="M37.34,99.39H26.71a1.64,1.64,0,0,1-1.64-1.64V87.12a1.64,1.64,0,0,1,3.27,0v9h9a1.64,1.64,0,0,1,0,3.27Z" style="fill:#0224b0"/><path d="M26.71,99.39a1.64,1.64,0,0,1-1.16-2.79L40.43,81.71A1.64,1.64,0,1,1,42.75,84L27.87,98.91A1.63,1.63,0,0,1,26.71,99.39Z" style="fill:#0224b0"/><path d="M103.29,33.44a1.64,1.64,0,0,1-1.64-1.64v-9h-9a1.64,1.64,0,1,1,0-3.27h10.63a1.64,1.64,0,0,1,1.64,1.64V31.8A1.64,1.64,0,0,1,103.29,33.44Z" style="fill:#0224b0"/><path d="M88.41,37.69a1.64,1.64,0,0,1-1.16-2.79L102.13,20a1.64,1.64,0,0,1,2.31,2.31L89.56,37.21A1.63,1.63,0,0,1,88.41,37.69Z" style="fill:#0224b0"/></svg>