<svg id="DISEÑO" xmlns="http://www.w3.org/2000/svg" viewBox="0 0 375.49 149.01"><title>assets</title><path d="M139.67,82.85V47.56h6v30h18.8v5.24Z" style="fill:#0224b0"/><path d="M181.06,83.3a12.45,12.45,0,0,1-11-6.38,14.25,14.25,0,0,1,0-13.36,12.37,12.37,0,0,1,11-6.38,12.32,12.32,0,0,1,6.48,1.71A12.52,12.52,0,0,1,192,63.57a14.24,14.24,0,0,1,0,13.36,12.52,12.52,0,0,1-4.51,4.66A12.32,12.32,0,0,1,181.06,83.3Zm0-4.84a6.44,6.44,0,0,0,3.66-1.06,7.19,7.19,0,0,0,2.5-2.95,9.6,9.6,0,0,0,.91-4.21,9.39,9.39,0,0,0-.91-4.21,7.45,7.45,0,0,0-2.5-2.92A6.33,6.33,0,0,0,181.06,62a6.45,6.45,0,0,0-3.68,1.08A7.38,7.38,0,0,0,174.86,66a9.41,9.41,0,0,0-.91,4.21,9.56,9.56,0,0,0,.91,4.23,7.16,7.16,0,0,0,2.52,2.92A6.56,6.56,0,0,0,181.06,78.46Z" style="fill:#0224b0"/><path d="M201.88,82.85V62.13h-5.44V57.59h5.44V53.26A8.38,8.38,0,0,1,204.12,47q2.24-2.19,6.48-2.19,1.06,0,2.07.1a7.36,7.36,0,0,1,1.71.35v4.84q-1-.2-1.61-.28a12.31,12.31,0,0,0-1.41-.08,4.08,4.08,0,0,0-2.87.86,3.67,3.67,0,0,0-.91,2.77v4.23h6.81v4.54h-6.81V82.85Z" style="fill:#0224b0"/><path d="M229.91,83.35a12.58,12.58,0,0,1-6.55-1.74A12.91,12.91,0,0,1,217,70.24a13.54,13.54,0,0,1,1.61-6.65A12.51,12.51,0,0,1,223,58.93a11.55,11.55,0,0,1,6.23-1.74,11.36,11.36,0,0,1,6.23,1.71,12,12,0,0,1,4.24,4.64,14.2,14.2,0,0,1,1.54,6.71v1.36H222.6a9,9,0,0,0,1.34,3.66,7.45,7.45,0,0,0,2.67,2.5,7.21,7.21,0,0,0,3.55.91,9,9,0,0,0,3.35-.63,7.33,7.33,0,0,0,2.65-1.74l3.73,3.38a16.26,16.26,0,0,1-4.71,2.8A15.15,15.15,0,0,1,229.91,83.35Zm-7.26-15.28h13.21a8.24,8.24,0,0,0-1.23-3.23,7,7,0,0,0-2.32-2.22,6,6,0,0,0-3.05-.81,6.11,6.11,0,0,0-3,.78,6.51,6.51,0,0,0-2.29,2.19A9.13,9.13,0,0,0,222.65,68.08Z" style="fill:#0224b0"/><path d="M242.51,82.85l9.53-13-9.12-12.25h6.71l5.9,8.32,5.9-8.32h6.4L258.6,70l9.63,12.86h-6.65L255.22,74l-6.35,8.82Z" style="fill:#0224b0"/><path d="M283.25,93.89a22.34,22.34,0,0,1-10.13-2.47l2-4.18a27.52,27.52,0,0,0,4.16,1.59,13.88,13.88,0,0,0,3.76.53,7.19,7.19,0,0,0,4.81-1.41,5.22,5.22,0,0,0,1.64-4.18V79.47a9.4,9.4,0,0,1-3.38,2.6,10.31,10.31,0,0,1-4.39.93,10,10,0,0,1-5.75-1.74,12.63,12.63,0,0,1-4.11-4.64,13.59,13.59,0,0,1-1.54-6.48,13.28,13.28,0,0,1,1.56-6.45,12.3,12.3,0,0,1,4.26-4.59,10.91,10.91,0,0,1,6-1.71,10,10,0,0,1,4.13.86,8.87,8.87,0,0,1,3.28,2.52V57.59h5.65V83.76q0,4.89-3.08,7.51T283.25,93.89Zm.2-15.63a7.87,7.87,0,0,0,3.38-.73,7.29,7.29,0,0,0,2.62-2V64.9a7.52,7.52,0,0,0-2.67-2,8,8,0,0,0-3.33-.71,7.24,7.24,0,0,0-3.86,1A7.44,7.44,0,0,0,276.92,66a9.18,9.18,0,0,0,0,8.27,7.53,7.53,0,0,0,2.67,2.9A7.11,7.11,0,0,0,283.45,78.26Z" style="fill:#0224b0"/><path d="M313.9,83.35a12.58,12.58,0,0,1-6.55-1.74A12.91,12.91,0,0,1,301,70.24a13.54,13.54,0,0,1,1.61-6.65A12.51,12.51,0,0,1,307,58.93a11.55,11.55,0,0,1,6.23-1.74,11.36,11.36,0,0,1,6.23,1.71,12,12,0,0,1,4.24,4.64,14.2,14.2,0,0,1,1.54,6.71v1.36H306.59a9,9,0,0,0,1.34,3.66,7.45,7.45,0,0,0,2.67,2.5,7.21,7.21,0,0,0,3.55.91,9,9,0,0,0,3.35-.63,7.33,7.33,0,0,0,2.65-1.74l3.73,3.38a16.26,16.26,0,0,1-4.71,2.8A15.15,15.15,0,0,1,313.9,83.35Zm-7.26-15.28h13.21a8.24,8.24,0,0,0-1.23-3.23,7,7,0,0,0-2.32-2.22,6,6,0,0,0-3.05-.81,6.11,6.11,0,0,0-3,.78,6.51,6.51,0,0,0-2.29,2.19A9.13,9.13,0,0,0,306.64,68.08Z" style="fill:#0224b0"/><path d="M331,82.85V57.59h5.7V63a10.71,10.71,0,0,1,2.87-4.39,6.09,6.09,0,0,1,4.08-1.51q.76.05,1.31.13a3.74,3.74,0,0,1,1.16.38v5a6.19,6.19,0,0,0-1.49-.45A9.18,9.18,0,0,0,343,62a6.46,6.46,0,0,0-3.71,1.11,7.67,7.67,0,0,0-2.6,3.08V82.85Z" style="fill:#0224b0"/><path d="M73.49,12.63a54,54,0,0,0-38.8,91.54L25.3,126.34l21.06-13A54,54,0,1,0,73.49,12.63Zm0,100.42a46.41,46.41,0,1,1,46.41-46.41A46.46,46.46,0,0,1,73.49,113Z" style="fill:#07a6ff;stroke:#00b9e3;stroke-miterlimit:10;stroke-width:0.092267406985484px"/><path d="M73.49,34.84,45.68,50.9V83L73.49,99.07,101.3,83V50.9Zm25,46.55-25,14.44-25-14.44V52.52l25-14.44,25,14.44Z" style="fill:#0224b0"/><path d="M53,55.1V78.81L73.49,90.66,94,78.81V55.1L73.49,43.25ZM82.87,79.42H62.44v-1.1c3.36-.24,3.7-.5,3.7-3.86V59.38c0-3.33-.26-3.57-3.52-3.78V54.45H73.26V55.6c-3.1.21-3.47.42-3.47,3.78V74.33c0,2.1.18,2.84.92,3.23a8.56,8.56,0,0,0,3.65.5h3C79,78,80.24,77.71,81,76.82A10.46,10.46,0,0,0,83.16,73l1.18.24C84.08,74.54,83.27,78.24,82.87,79.42Zm.32-15-.71.11a4.53,4.53,0,0,0-.71-1.88c-.41-.65-.92-.85-2.67-.85H76.61c-.74,0-.81.06-.81.76v5.4h2c2.16,0,2.29-.22,2.59-1.72h.7v4.55h-.71c-.28-1.61-.41-1.86-2.58-1.86h-2v4c0,2.05.21,2.2,2.37,2.35v.66H71.52v-.66c1.88-.14,2.09-.3,2.09-2.35v-9c0-2-.21-2.16-2-2.29v-.7H82.94C83,61.78,83.08,63.25,83.19,64.4Z" style="fill:#0224b0"/></svg>