<svg id="DISEÑO" xmlns="http://www.w3.org/2000/svg" viewBox="0 0 200 200"><title>assets</title><path d="M57.7,74.22H142.3a8.35,8.35,0,0,1,8.35,8.67l-3.87,76.43a8.33,8.33,0,0,1-8.35,8H61.58a8.33,8.33,0,0,1-8.35-8L49.35,82.89a8.35,8.35,0,0,1,8.35-8.67Zm80.72,88.13a3.34,3.34,0,0,0,3.35-3.22l3.87-76.43a3.35,3.35,0,0,0-3.35-3.47H57.7a3.35,3.35,0,0,0-3.35,3.47l3.87,76.43a3.34,3.34,0,0,0,3.35,3.22Z" style="fill:#07a6ff"/><path d="M124.41,78.13a2.5,2.5,0,0,1-2.5-2.5V60.29a22.65,22.65,0,1,0-45.29,0V75.62a2.5,2.5,0,0,1-5,0V60.29a27.65,27.65,0,1,1,55.3,0V75.62A2.5,2.5,0,0,1,124.41,78.13Z" style="fill:#07a6ff"/></svg>