<svg id="DISEÑO" xmlns="http://www.w3.org/2000/svg" viewBox="0 0 247.7 77.05"><title>assets</title><path d="M207.91,5.14H38l-1.54,0a22.08,22.08,0,0,0-3.35.3,11.14,11.14,0,0,0-3.18,1,10.76,10.76,0,0,0-2.7,2,10.46,10.46,0,0,0-2,2.71,11,11,0,0,0-1,3.18,21.71,21.71,0,0,0-.3,3.35c0,.51,0,1,0,1.54V57.87c0,.52,0,1,0,1.54a21.71,21.71,0,0,0,.3,3.35,11,11,0,0,0,1,3.18,10.37,10.37,0,0,0,2,2.7,10.48,10.48,0,0,0,2.7,2,11.2,11.2,0,0,0,3.18,1.05,22.48,22.48,0,0,0,3.35.3L38,72H209.72l1.54,0a22.19,22.19,0,0,0,3.34-.3,11.37,11.37,0,0,0,3.19-1.05,10.49,10.49,0,0,0,2.7-2,10.69,10.69,0,0,0,2-2.7,11,11,0,0,0,1-3.18,22.57,22.57,0,0,0,.31-3.35c0-.52,0-1,0-1.54s0-1.21,0-1.83v-35c0-.61,0-1.22,0-1.82s0-1,0-1.54a22.57,22.57,0,0,0-.31-3.35,11.06,11.06,0,0,0-1-3.18,10.8,10.8,0,0,0-4.68-4.68,11.31,11.31,0,0,0-3.19-1,21.8,21.8,0,0,0-3.34-.3l-1.54,0Z" style="fill:#a6a6a6"/><path d="M38,70.52l-1.51,0a21.2,21.2,0,0,1-3.12-.27,9.83,9.83,0,0,1-2.77-.92,9,9,0,0,1-2.33-1.7,8.89,8.89,0,0,1-1.71-2.33,9.56,9.56,0,0,1-.91-2.77,20.74,20.74,0,0,1-.28-3.13c0-.35,0-1.53,0-1.53V19.25s0-1.16,0-1.49a20.67,20.67,0,0,1,.28-3.13,9.62,9.62,0,0,1,.91-2.78,9,9,0,0,1,1.7-2.34A9.3,9.3,0,0,1,30.58,7.8a9.73,9.73,0,0,1,2.76-.91,21,21,0,0,1,3.13-.27L38,6.6H209.71l1.53,0a20.69,20.69,0,0,1,3.11.27,9.92,9.92,0,0,1,2.79.92,9.35,9.35,0,0,1,4,4,9.63,9.63,0,0,1,.89,2.76,21.71,21.71,0,0,1,.29,3.15c0,.47,0,1,0,1.49s0,1.22,0,1.82V56c0,.61,0,1.2,0,1.8s0,1,0,1.55a21.27,21.27,0,0,1-.29,3.1,9.59,9.59,0,0,1-.9,2.79,9.16,9.16,0,0,1-1.7,2.32,9,9,0,0,1-2.34,1.71,9.79,9.79,0,0,1-2.79.92,21,21,0,0,1-3.12.27l-1.5,0H38Z"/><g id="_Group_" data-name="&lt;Group&gt;"><g id="_Group_2" data-name="&lt;Group&gt;"><g id="_Group_3" data-name="&lt;Group&gt;"><path id="_Path_" data-name="&lt;Path&gt;" d="M65.26,39.06a8.27,8.27,0,0,1,3.94-6.94,8.46,8.46,0,0,0-6.67-3.61c-2.81-.29-5.53,1.68-7,1.68s-3.66-1.65-6-1.6a8.88,8.88,0,0,0-7.47,4.56c-3.23,5.6-.82,13.82,2.27,18.34,1.55,2.21,3.36,4.69,5.73,4.6s3.18-1.48,6-1.48,3.58,1.48,6,1.42,4.05-2.22,5.55-4.46a18.32,18.32,0,0,0,2.54-5.17A8,8,0,0,1,65.26,39.06Z" style="fill:#fff"/><path id="_Path_2" data-name="&lt;Path&gt;" d="M60.7,25.54a8.14,8.14,0,0,0,1.86-5.83,8.28,8.28,0,0,0-5.36,2.77,7.75,7.75,0,0,0-1.91,5.62A6.85,6.85,0,0,0,60.7,25.54Z" style="fill:#fff"/></g></g><path d="M94.56,50.49H86.65l-1.9,5.61H81.4l7.49-20.75h3.48L99.86,56.1H96.46ZM87.47,47.9h6.27l-3.09-9.1h-.09Z" style="fill:#fff"/><path d="M116,48.53c0,4.7-2.52,7.72-6.31,7.72A5.13,5.13,0,0,1,105,53.61h-.07V61.1h-3.11V41h3v2.52h.06a5.37,5.37,0,0,1,4.82-2.67C113.51,40.81,116,43.85,116,48.53Zm-3.19,0c0-3.06-1.58-5.08-4-5.08s-4,2.06-4,5.08,1.6,5.09,4,5.09S112.85,51.62,112.85,48.53Z" style="fill:#fff"/><path d="M132.69,48.53c0,4.7-2.52,7.72-6.31,7.72a5.13,5.13,0,0,1-4.76-2.65h-.07V61.1h-3.11V41h3v2.52h.06a5.37,5.37,0,0,1,4.82-2.67C130.16,40.81,132.69,43.85,132.69,48.53Zm-3.19,0c0-3.06-1.58-5.08-4-5.08s-4,2.06-4,5.08,1.6,5.09,4,5.09S129.5,51.62,129.5,48.53Z" style="fill:#fff"/><path d="M143.7,50.32c.23,2.06,2.23,3.41,5,3.41s4.5-1.35,4.5-3.21c0-1.61-1.14-2.58-3.82-3.24l-2.69-.65c-3.81-.92-5.58-2.7-5.58-5.59,0-3.58,3.12-6,7.55-6s7.39,2.46,7.49,6H153c-.19-2.07-1.9-3.32-4.4-3.32s-4.21,1.26-4.21,3.11c0,1.47,1.09,2.33,3.77,3l2.29.56c4.26,1,6,2.72,6,5.75,0,3.88-3.09,6.31-8,6.31-4.6,0-7.71-2.37-7.91-6.13Z" style="fill:#fff"/><path d="M163.14,37.39V41H166v2.46h-2.88v8.34c0,1.3.58,1.9,1.84,1.9a9.7,9.7,0,0,0,1-.07V56a8.53,8.53,0,0,1-1.72.14c-3.06,0-4.26-1.15-4.26-4.08V43.43h-2.2V41H160V37.39Z" style="fill:#fff"/><path d="M167.69,48.53c0-4.76,2.8-7.75,7.18-7.75s7.18,3,7.18,7.75-2.78,7.75-7.18,7.75S167.69,53.31,167.69,48.53Zm11.19,0c0-3.27-1.5-5.19-4-5.19s-4,1.94-4,5.19,1.49,5.19,4,5.19S178.87,51.81,178.87,48.53Z" style="fill:#fff"/><path d="M184.6,41h3v2.58h.07a3.61,3.61,0,0,1,3.64-2.73,4.79,4.79,0,0,1,1.06.12v2.9a4.34,4.34,0,0,0-1.4-.19c-2,0-3.24,1.35-3.24,3.48v9H184.6Z" style="fill:#fff"/><path d="M206.65,51.65c-.42,2.75-3.09,4.63-6.51,4.63-4.4,0-7.13-2.95-7.13-7.68s2.75-7.82,7-7.82,6.82,2.88,6.82,7.46v1.06H196.14v.19a3.94,3.94,0,0,0,4.07,4.29,3.42,3.42,0,0,0,3.49-2.13Zm-10.5-4.52h7.56A3.64,3.64,0,0,0,200,43.3,3.83,3.83,0,0,0,196.15,47.14Z" style="fill:#fff"/></g><g id="_Group_4" data-name="&lt;Group&gt;"><path d="M83.07,24.72c0-3.23,1.72-5.23,4.49-5.23a4,4,0,0,1,4.15,3.46H90.17a2.56,2.56,0,0,0-2.6-2c-1.79,0-2.91,1.46-2.91,3.79s1.12,3.78,2.92,3.78a2.5,2.5,0,0,0,2.6-1.84h1.54a3.89,3.89,0,0,1-4.14,3.28C84.8,29.94,83.07,27.94,83.07,24.72Z" style="fill:#fff"/><path d="M93.4,25.93c0-2.43,1.35-3.9,3.55-3.9s3.55,1.48,3.55,3.9S99.15,29.84,97,29.84,93.4,28.37,93.4,25.93Zm5.57,0c0-1.63-.73-2.58-2-2.58s-2,1-2,2.58.73,2.59,2,2.59S99,27.57,99,25.93Z" style="fill:#fff"/><path d="M102.49,22.17h1.43v1.2H104A2.25,2.25,0,0,1,106.28,22c1.68,0,2.6,1,2.6,2.8V29.7H107.4V25.2c0-1.21-.53-1.81-1.62-1.81A1.73,1.73,0,0,0,104,25.3v4.4h-1.48Z" style="fill:#fff"/><path d="M113.93,22c1.69,0,2.8.79,2.94,2.11h-1.42c-.14-.55-.68-.9-1.52-.9s-1.46.39-1.46,1,.38.73,1.2.92l1.25.29c1.43.33,2.1.95,2.1,2.05,0,1.42-1.32,2.36-3.12,2.36s-3-.81-3.09-2.14h1.49a1.53,1.53,0,0,0,1.64.94c.93,0,1.58-.41,1.58-1,0-.45-.35-.74-1.11-.92l-1.31-.3c-1.43-.34-2.09-1-2.09-2.1C111,23,112.23,22,113.93,22Z" style="fill:#fff"/><path d="M118.89,20.92l1.73-2.38h1.74l-1.94,2.38Zm.15,1.26h1.48V29.7H119Z" style="fill:#fff"/><path d="M122.84,30.45h1.52c.13.55.75.9,1.76.9,1.24,0,2-.59,2-1.58V28.32H128a2.53,2.53,0,0,1-2.32,1.26c-1.92,0-3.11-1.48-3.11-3.74s1.2-3.8,3.12-3.8A2.61,2.61,0,0,1,128,23.38h.12v-1.2h1.42v7.59c0,1.72-1.35,2.81-3.48,2.81C124.21,32.57,123,31.73,122.84,30.45Zm5.27-4.61c0-1.5-.78-2.46-2-2.46s-2,1-2,2.46.72,2.46,2,2.46S128.11,27.35,128.11,25.84Z" style="fill:#fff"/><path d="M138.28,29.7h-1.43V28.5h-.12a2.26,2.26,0,0,1-2.27,1.34c-1.66,0-2.59-1-2.59-2.78V22.17h1.49v4.5c0,1.22.49,1.8,1.58,1.8a1.71,1.71,0,0,0,1.86-1.89v-4.4h1.49Z" style="fill:#fff"/><path d="M147,27.67a3.05,3.05,0,0,1-3.26,2.18c-2.16,0-3.48-1.48-3.48-3.88S141.62,22,143.74,22s3.36,1.43,3.36,3.79v.52h-5.31v.08a2,2,0,0,0,2,2.16,1.8,1.8,0,0,0,1.79-.91Zm-5.22-2.42h3.8a1.82,1.82,0,0,0-1.85-1.95A1.92,1.92,0,0,0,141.78,25.24Z" style="fill:#fff"/><path d="M149.16,19.24h1.48V29.7h-1.48Z" style="fill:#fff"/><path d="M152.71,25.93c0-2.43,1.35-3.9,3.55-3.9s3.55,1.48,3.55,3.9-1.35,3.91-3.55,3.91S152.71,28.37,152.71,25.93Zm5.57,0c0-1.63-.73-2.58-2-2.58s-2,1-2,2.58.73,2.59,2,2.59S158.28,27.57,158.28,25.93Z" style="fill:#fff"/><path d="M172.24,27.67A3.05,3.05,0,0,1,169,29.84c-2.16,0-3.48-1.48-3.48-3.88S166.85,22,169,22s3.36,1.43,3.36,3.79v.52H167v.08a2,2,0,0,0,2,2.16,1.8,1.8,0,0,0,1.79-.91ZM167,25.24h3.8A1.82,1.82,0,0,0,169,23.29,1.92,1.92,0,0,0,167,25.24Z" style="fill:#fff"/><path d="M174.33,22.17h1.43v1.2h.11A2.25,2.25,0,0,1,178.11,22c1.68,0,2.6,1,2.6,2.8V29.7h-1.48V25.2c0-1.21-.53-1.81-1.62-1.81a1.73,1.73,0,0,0-1.8,1.91v4.4h-1.48Z" style="fill:#fff"/><path d="M193.46,27.67a3.05,3.05,0,0,1-3.26,2.18c-2.16,0-3.48-1.48-3.48-3.88S188.07,22,190.19,22s3.36,1.43,3.36,3.79v.52h-5.31v.08a2,2,0,0,0,2,2.16,1.8,1.8,0,0,0,1.79-.91Zm-5.22-2.42H192a1.82,1.82,0,0,0-1.85-1.95A1.92,1.92,0,0,0,188.23,25.24Z" style="fill:#fff"/><path d="M195.61,19.24h1.48V29.7h-1.48Z" style="fill:#fff"/></g></svg>