<svg id="DISEÑO" xmlns="http://www.w3.org/2000/svg" xmlns:xlink="http://www.w3.org/1999/xlink" viewBox="0 0 247.7 77.05"><defs><linearGradient id="linear-gradient" x1="47.49" y1="8849.9" x2="19.44" y2="8821.85" gradientTransform="matrix(1, 0, 0, -1, 0, 8869.53)" gradientUnits="userSpaceOnUse"><stop offset="0" stop-color="#1799c4"/><stop offset="0.01" stop-color="#159ac4"/><stop offset="0.26" stop-color="#1ea8cb"/><stop offset="0.51" stop-color="#1caacc"/><stop offset="0.76" stop-color="#27adcd"/><stop offset="1" stop-color="#27aecd"/></linearGradient><linearGradient id="linear-gradient-2" x1="67.6" y1="8831.03" x2="27.16" y2="8831.03" gradientTransform="matrix(1, 0, 0, -1, 0, 8869.53)" gradientUnits="userSpaceOnUse"><stop offset="0" stop-color="#f7e016"/><stop offset="0.41" stop-color="#f7bd0e"/><stop offset="0.78" stop-color="#f9a50e"/><stop offset="1" stop-color="#f79c0f"/></linearGradient><linearGradient id="linear-gradient-3" x1="52.55" y1="8827.19" x2="14.52" y2="8789.17" gradientTransform="matrix(1, 0, 0, -1, 0, 8869.53)" gradientUnits="userSpaceOnUse"><stop offset="0" stop-color="#f73944"/><stop offset="1" stop-color="#c31762"/></linearGradient><linearGradient id="linear-gradient-4" x1="23.25" y1="8864.16" x2="40.23" y2="8847.17" gradientTransform="matrix(1, 0, 0, -1, 0, 8869.53)" gradientUnits="userSpaceOnUse"><stop offset="0" stop-color="#2e9d70"/><stop offset="0.07" stop-color="#2ca26f"/><stop offset="0.48" stop-color="#189960"/><stop offset="0.8" stop-color="#1b9a56"/><stop offset="1" stop-color="#179652"/></linearGradient></defs><title>assets</title><rect x="11.06" y="5.08" width="225.58" height="66.84" rx="8.35" ry="8.35"/><path d="M228.29,6.41a7,7,0,0,1,7,7V63.56a7,7,0,0,1-7,7H19.41a7,7,0,0,1-7-7V13.43a7,7,0,0,1,7-7H228.29m0-1.34H19.41a8.38,8.38,0,0,0-8.35,8.35V63.56a8.38,8.38,0,0,0,8.35,8.35H228.29a8.38,8.38,0,0,0,8.35-8.35V13.43a8.38,8.38,0,0,0-8.35-8.35Z" style="fill:#a6a6a6"/><path d="M124.91,41.42A7.11,7.11,0,1,0,132,48.53,7,7,0,0,0,124.91,41.42Zm0,11.41a4.32,4.32,0,1,1,4-4.31A4.11,4.11,0,0,1,124.91,52.84ZM109.35,41.42a7.11,7.11,0,1,0,7.13,7.11A7,7,0,0,0,109.35,41.42Zm0,11.41a4.32,4.32,0,1,1,4-4.31A4.11,4.11,0,0,1,109.35,52.84ZM90.84,43.6v3h7.21a6.29,6.29,0,0,1-1.64,3.8,7.39,7.39,0,0,1-5.57,2.21,8,8,0,0,1,0-16,7.69,7.69,0,0,1,5.44,2.15L98.4,36.6a10.52,10.52,0,0,0-7.56-3,11,11,0,1,0,0,22.07,10.09,10.09,0,0,0,7.7-3.1,10,10,0,0,0,2.61-7.05A9.81,9.81,0,0,0,101,43.6Zm75.71,2.34a6.61,6.61,0,0,0-6.08-4.52,6.75,6.75,0,0,0-6.7,7.11,7,7,0,0,0,7.05,7.11,7.07,7.07,0,0,0,5.92-3.15l-2.42-1.62a4.06,4.06,0,0,1-3.5,2,3.62,3.62,0,0,1-3.45-2.15l9.5-3.93Zm-9.69,2.37a3.9,3.9,0,0,1,3.71-4.15,2.75,2.75,0,0,1,2.64,1.51Zm-7.73,6.89h3.12V34.31h-3.12ZM144,43h-.11a4.92,4.92,0,0,0-3.74-1.59,7.11,7.11,0,0,0,0,14.21A4.85,4.85,0,0,0,143.91,54H144v1c0,2.72-1.45,4.17-3.8,4.17a3.93,3.93,0,0,1-3.58-2.53l-2.72,1.13a6.77,6.77,0,0,0,6.3,4.2c3.66,0,6.76-2.15,6.76-7.4V41.85h-3Zm-3.58,9.83a4.32,4.32,0,0,1,0-8.61c2.13,0,3.8,1.83,3.8,4.33S142.56,52.84,140.44,52.84Zm40.74-18.52H173.7V55.2h3.12V47.29h4.35a6.5,6.5,0,1,0,0-13Zm.08,10.07h-4.43V37.22h4.43a3.58,3.58,0,1,1,0,7.16Zm19.27-3a5.85,5.85,0,0,0-5.56,3.2l2.77,1.16a3,3,0,0,1,2.85-1.53c1.61,0,3.25,1,3.28,2.69v.22a6.9,6.9,0,0,0-3.25-.81c-3,0-6,1.64-6,4.7,0,2.79,2.45,4.6,5.19,4.6a4.4,4.4,0,0,0,4-2h.11v1.61h3v-8C206.87,43.45,204.1,41.38,200.52,41.38Zm-.38,11.45c-1,0-2.45-.51-2.45-1.77,0-1.61,1.77-2.23,3.31-2.23a5.55,5.55,0,0,1,2.85.7A3.78,3.78,0,0,1,200.15,52.83Zm17.68-11-3.57,9.06h-.11l-3.71-9.06h-3.36l5.56,12.66-3.17,7h3.25l8.57-19.7ZM189.75,55.2h3.12V34.32h-3.12Z" style="fill:#fff"/><path d="M28.5,17.67A3.35,3.35,0,0,0,27.72,20V57a3.34,3.34,0,0,0,.77,2.35l.12.12,20.7-20.7v-.49l-20.7-20.7Z" style="fill:url(#linear-gradient)"/><path d="M56.22,45.64l-6.9-6.9v-.49l6.9-6.9.16.09,8.18,4.65c2.34,1.33,2.34,3.5,0,4.83l-8.18,4.65Z" style="fill:url(#linear-gradient-2)"/><path d="M56.38,45.55,49.32,38.5,28.5,59.32c.77.81,2,.92,3.47.1L56.38,45.55" style="fill:url(#linear-gradient-3)"/><path d="M56.38,31.44,32,17.57c-1.43-.81-2.7-.71-3.47.1L49.32,38.5Z" style="fill:url(#linear-gradient-4)"/><path d="M56.22,45.4,32,59.18c-1.36.77-2.57.72-3.35,0h0l-.12.12h0l.12.12h0c.78.7,2,.75,3.35,0L56.38,45.55Z" style="opacity:0.2;isolation:isolate"/><path d="M28.5,59.08a3.35,3.35,0,0,1-.77-2.35V57a3.35,3.35,0,0,0,.77,2.35l.12-.12Z" style="opacity:0.12;isolation:isolate"/><path d="M64.56,40.66,56.22,45.4l.16.16,8.18-4.65a2.93,2.93,0,0,0,1.75-2.41h0A3.11,3.11,0,0,1,64.56,40.66Z" style="opacity:0.12;isolation:isolate"/><path d="M32,17.81,64.56,36.33a3.11,3.11,0,0,1,1.75,2.17h0a2.93,2.93,0,0,0-1.75-2.41L32,17.57c-2.34-1.33-4.25-.22-4.25,2.45v.24C27.72,17.59,29.63,16.49,32,17.81Z" style="fill:#fff;opacity:0.25;isolation:isolate"/><path d="M80,26.8v-10H83.1a5,5,0,0,1,3.7,1.39,4.91,4.91,0,0,1,1.39,3.62A4.91,4.91,0,0,1,86.8,25.4a5,5,0,0,1-3.7,1.39Zm1.29-1.23H83.1a3.76,3.76,0,0,0,2.75-1,3.72,3.72,0,0,0,1-2.79A3.49,3.49,0,0,0,83.1,18H81.33Z" style="fill:#fff;stroke:#fff;stroke-miterlimit:10;stroke-width:0.334195386472825px"/><path d="M90,26.8v-10h1.29v10Z" style="fill:#fff;stroke:#fff;stroke-miterlimit:10;stroke-width:0.334195386472825px"/><path d="M96.41,27a3.74,3.74,0,0,1-2.13-.71,3.3,3.3,0,0,1-1.37-2l1.18-.48a2.68,2.68,0,0,0,.86,1.39,2.18,2.18,0,0,0,1.46.57,2.35,2.35,0,0,0,1.44-.44,1.41,1.41,0,0,0,.59-1.2,1.53,1.53,0,0,0-.59-1.29A6.16,6.16,0,0,0,96,22a5,5,0,0,1-2-1.09,2.27,2.27,0,0,1-.69-1.7,2.49,2.49,0,0,1,.86-1.88,3.13,3.13,0,0,1,2.23-.8,3.22,3.22,0,0,1,2.07.64,3,3,0,0,1,1,1.39l-1.17.49a1.74,1.74,0,0,0-.62-.88,2.19,2.19,0,0,0-2.55,0,1.26,1.26,0,0,0-.53,1,1.17,1.17,0,0,0,.48.95,4.64,4.64,0,0,0,1.42.69,12.1,12.1,0,0,1,1.24.46,5.64,5.64,0,0,1,1,.59,2.37,2.37,0,0,1,.77.92,3,3,0,0,1,.26,1.28,2.76,2.76,0,0,1-.3,1.3,2.45,2.45,0,0,1-.8.91,4,4,0,0,1-1.07.51A4,4,0,0,1,96.41,27Z" style="fill:#fff;stroke:#fff;stroke-miterlimit:10;stroke-width:0.334195386472825px"/><path d="M102.89,26.8H101.6v-10H105a3.17,3.17,0,0,1,2.2.85,2.91,2.91,0,0,1,0,4.27,3.16,3.16,0,0,1-2.2.85h-2.13Zm0-5.29H105a1.66,1.66,0,0,0,1.3-.54,1.73,1.73,0,0,0,0-2.41A1.66,1.66,0,0,0,105,18h-2.16Z" style="fill:#fff;stroke:#fff;stroke-miterlimit:10;stroke-width:0.334195386472825px"/><path d="M118,25.5a5.21,5.21,0,0,1-7.35,0,5.13,5.13,0,0,1-1.48-3.72,5.13,5.13,0,0,1,1.48-3.72,5.19,5.19,0,0,1,7.34,0,5.4,5.4,0,0,1,0,7.43Zm-6.4-.84a3.85,3.85,0,0,0,5.45,0,3.92,3.92,0,0,0,1.11-2.88A3.92,3.92,0,0,0,117,18.91a3.85,3.85,0,0,0-5.45,0,3.93,3.93,0,0,0-1.11,2.88A3.93,3.93,0,0,0,111.58,24.66Z" style="fill:#fff;stroke:#fff;stroke-miterlimit:10;stroke-width:0.334195386472825px"/><path d="M121.26,26.8v-10h1.57l4.87,7.8h.06l-.06-1.93V16.77H129v10h-1.34l-5.1-8.18h-.06l.06,1.93V26.8Z" style="fill:#fff;stroke:#fff;stroke-miterlimit:10;stroke-width:0.334195386472825px"/><path d="M131.29,26.8v-10h1.29v10Z" style="fill:#fff;stroke:#fff;stroke-miterlimit:10;stroke-width:0.334195386472825px"/><path d="M134.87,26.8v-10h3.63a3,3,0,0,1,2,.78,2.52,2.52,0,0,1,.86,2,2.18,2.18,0,0,1-.37,1.26,2.33,2.33,0,0,1-1,.83v.06a2.55,2.55,0,0,1,1.22.87,2.28,2.28,0,0,1,.48,1.43,2.63,2.63,0,0,1-.9,2,3.09,3.09,0,0,1-2.14.81Zm1.29-5.73h2.34a1.5,1.5,0,0,0,1.17-.48,1.49,1.49,0,0,0,0-2.11,1.44,1.44,0,0,0-1.13-.48h-2.4Zm0,4.5h2.59A1.54,1.54,0,0,0,140,25a1.66,1.66,0,0,0,.46-1.13,1.69,1.69,0,0,0-1.72-1.64h-2.53Z" style="fill:#fff;stroke:#fff;stroke-miterlimit:10;stroke-width:0.334195386472825px"/><path d="M143.47,26.8v-10h1.29v8.79h4.34V26.8Z" style="fill:#fff;stroke:#fff;stroke-miterlimit:10;stroke-width:0.334195386472825px"/><path d="M156.58,18H152v3.18h4.12v1.2H152v3.18h4.57V26.8h-5.85v-10h5.85Z" style="fill:#fff;stroke:#fff;stroke-miterlimit:10;stroke-width:0.334195386472825px"/><path d="M167.81,18h-4.57v3.18h4.12v1.2h-4.12v3.18h4.57V26.8H162v-10h5.85Z" style="fill:#fff;stroke:#fff;stroke-miterlimit:10;stroke-width:0.334195386472825px"/><path d="M169.82,26.8v-10h1.57l4.87,7.8h.06l-.06-1.93V16.77h1.29v10h-1.34l-5.1-8.18h-.06l.06,1.93V26.8Z" style="fill:#fff;stroke:#fff;stroke-miterlimit:10;stroke-width:0.334195386472825px"/></svg>