<svg id="DISEÑO" xmlns="http://www.w3.org/2000/svg" viewBox="0 0 130 130"><title>assets</title><path d="M22.36,78a3.57,3.57,0,0,1-1.52-.34,3.52,3.52,0,0,1-2-3.21V70.21a7.25,7.25,0,0,1-5.86-7.11V42.22A7.25,7.25,0,0,1,20.18,35H63.85a7.25,7.25,0,0,1,7.24,7.24V63.1a7.25,7.25,0,0,1-7.24,7.24H32.91l-8.3,6.85A3.52,3.52,0,0,1,22.36,78ZM20.18,37.74a4.48,4.48,0,0,0-4.48,4.48V63.1a4.48,4.48,0,0,0,4.48,4.48A1.38,1.38,0,0,1,21.56,69v5.5a.79.79,0,0,0,1.29.61l8.68-7.17a1.38,1.38,0,0,1,.88-.32H63.85a4.48,4.48,0,0,0,4.48-4.48V42.22a4.48,4.48,0,0,0-4.48-4.48Z" style="fill:#0224b0"/><path d="M43.59,50.14H23.72a1.38,1.38,0,1,1,0-2.76H43.59a1.38,1.38,0,1,1,0,2.76Z" style="fill:#0224b0"/><path d="M60.32,57.84H23.72a1.38,1.38,0,1,1,0-2.76h36.6a1.38,1.38,0,1,1,0,2.76Z" style="fill:#0224b0"/><path d="M68.47,87.52A31.21,31.21,0,1,1,99.68,56.31,31.24,31.24,0,0,1,68.47,87.52Zm0-59.64A28.43,28.43,0,1,0,96.91,56.31,28.47,28.47,0,0,0,68.47,27.88Z" style="fill:#0224b0"/><path d="M111.18,104.89a5.86,5.86,0,0,1-4.15-1.72h0L85.71,81.86a1.39,1.39,0,0,1,0-2l6.35-6.35a1.39,1.39,0,0,1,2,0l21.31,21.31a5.87,5.87,0,0,1-4.15,10ZM109,101.22a3.1,3.1,0,0,0,4.39-4.39L93,76.49l-4.39,4.39L109,101.22Z" style="fill:#0224b0"/></svg>