<svg id="DISEÑO" xmlns="http://www.w3.org/2000/svg" viewBox="0 0 130 130"><title>assets</title><path d="M98.15,108h-.09l-16.19-.2h-.1l-18.89-.23a9.23,9.23,0,0,1-5.8-2.24,4.67,4.67,0,0,0-1.84-.87,4.16,4.16,0,0,1-3.16-4V62.6a4.15,4.15,0,0,1,.54-2l9.23-16.17a37.36,37.36,0,0,0,4.32-11.85L67,27.8c.08-.61.7-4.52,4.43-5.53A7.26,7.26,0,0,1,73.31,22c3.58,0,6.45,4.32,8.53,12.7a20,20,0,0,1,.3,8.32L79.73,56.89l25.82.32a7.79,7.79,0,0,1,7.76,7.46,7.54,7.54,0,0,1-2.21,5.49,7.63,7.63,0,0,1-2.16,1.53,7.6,7.6,0,0,1-2.53,11.85,7.6,7.6,0,0,1-2.52,11.85A7.6,7.6,0,0,1,98.15,108ZM73.22,24.87a3.85,3.85,0,0,0-1,.13c-2.06.56-2.36,3-2.37,3.15l0,.11L69,33a40.17,40.17,0,0,1-4.65,12.75L55.08,62a1.31,1.31,0,0,0-.17.65V100.4a1.34,1.34,0,0,0,1,1.27,7.44,7.44,0,0,1,2.94,1.43,6.43,6.43,0,0,0,4,1.59l18.9.23h.1l16.18.2A4.77,4.77,0,0,0,100,96a1.41,1.41,0,0,1,.56-2.71h.07a4.77,4.77,0,0,0,1.89-9.14,1.41,1.41,0,0,1,.56-2.71h.07a4.77,4.77,0,0,0,1.89-9.14,1.41,1.41,0,0,1-.82-1.59,1.38,1.38,0,0,1,1.4-1.12,4.66,4.66,0,0,0,3.44-1.41,4.74,4.74,0,0,0,1.39-3.45,4.94,4.94,0,0,0-5-4.68l-27.36-.34a1.42,1.42,0,0,1-1.07-.51l-.1-.13a1.42,1.42,0,0,1-.3-1.14l2.67-15.35a17.21,17.21,0,0,0-.25-7.15c-1.61-6.48-3.84-10.53-5.82-10.55Z" style="fill:#0224b0"/><path d="M20.85,106.86A4.08,4.08,0,0,1,18,105.7a4,4,0,0,1-1.21-2.85l-.09-42.09a4,4,0,0,1,1.2-2.86,4.08,4.08,0,0,1,2.87-1.17l23.13,0h0a4.08,4.08,0,0,1,2.87,1.16A4,4,0,0,1,48,60.69l.09,42.09a4,4,0,0,1-1.2,2.86A4.08,4.08,0,0,1,44,106.81l-23.13,0Zm23-47.35h0l-23.13,0a1.27,1.27,0,0,0-.89.36,1.16,1.16,0,0,0-.36.83l.09,42.09A1.23,1.23,0,0,0,20.85,104L44,104a1.27,1.27,0,0,0,.9-.36,1.16,1.16,0,0,0,.36-.83L45.15,60.7a1.16,1.16,0,0,0-.36-.83A1.27,1.27,0,0,0,43.9,59.51Z" style="fill:#0224b0"/><path d="M105.65,72.39H93.48a1.41,1.41,0,0,1,0-2.83h12.16a1.41,1.41,0,1,1,0,2.83Z" style="fill:#0224b0"/><path d="M103.13,84.24H91a1.41,1.41,0,1,1,0-2.83h12.16a1.41,1.41,0,1,1,0,2.83Z" style="fill:#0224b0"/><path d="M100.6,96.1H88.44a1.41,1.41,0,1,1,0-2.83H100.6a1.41,1.41,0,1,1,0,2.83Z" style="fill:#0224b0"/></svg>