<svg id="DISEÑO" xmlns="http://www.w3.org/2000/svg" viewBox="0 0 200 200"><title>assets</title><path d="M136.63,166.23c-27,0-51-12.28-58.51-29.87a2.5,2.5,0,1,1,4.61-2c6.72,15.8,28.88,26.83,53.9,26.83a76.07,76.07,0,0,0,33.8-7.48,2.5,2.5,0,0,1,1.73-.19l17,4.3-3.55-14a2.5,2.5,0,0,1,.48-2.19c4.27-5.28,6.43-11,6.43-17,0-16.33-16.83-30.8-40.93-35.2a2.5,2.5,0,0,1,.9-4.92c26.52,4.84,45,21.35,45,40.13a31.62,31.62,0,0,1-6.76,19.1l4.27,16.92a2.5,2.5,0,0,1-3,3l-20.2-5.1A81.45,81.45,0,0,1,136.63,166.23Z" style="fill:#07a6ff"/><path d="M78.2,136.68c-16,0-31.17-3.3-44.06-9.55L8.59,133.58a2.5,2.5,0,0,1-3-3L11,109A39.1,39.1,0,0,1,2.45,85.22c0-28.37,34-51.46,75.75-51.46S154,56.85,154,85.22,120,136.68,78.2,136.68ZM34.42,122a2.49,2.49,0,0,1,1.12.26c12.38,6.18,27.13,9.44,42.67,9.44,39,0,70.75-20.84,70.75-46.45S117.21,38.77,78.2,38.77,7.45,59.61,7.45,85.22c0,7.63,2.76,14.92,8.2,21.65a2.5,2.5,0,0,1,.48,2.19L11.43,127.7,33.81,122A2.49,2.49,0,0,1,34.42,122Z" style="fill:#07a6ff"/><path d="M78.2,96.77A11.55,11.55,0,1,1,89.75,85.22,11.56,11.56,0,0,1,78.2,96.77Zm0-18.08a6.54,6.54,0,1,0,6.54,6.54A6.55,6.55,0,0,0,78.2,78.68Z" style="fill:#07a6ff"/><path d="M43.9,96.77A11.55,11.55,0,1,1,55.44,85.22,11.56,11.56,0,0,1,43.9,96.77Zm0-18.08a6.54,6.54,0,1,0,6.54,6.54A6.55,6.55,0,0,0,43.9,78.68Z" style="fill:#07a6ff"/><path d="M112.51,96.77a11.55,11.55,0,1,1,11.55-11.55A11.56,11.56,0,0,1,112.51,96.77Zm0-18.08A6.54,6.54,0,1,0,119,85.22,6.55,6.55,0,0,0,112.51,78.68Z" style="fill:#07a6ff"/></svg>